<?xml version="1.0" encoding="iso-8859-1"?>
<!-- Uploaded to: SVG Repo, www.svgrepo.com, Generator: SVG Repo Mixer Tools -->
<svg fill="#000000" height="800px" width="800px" version="1.1" id="Layer_1" xmlns="http://www.w3.org/2000/svg" xmlns:xlink="http://www.w3.org/1999/xlink"
	 viewBox="0 0 512 512" xml:space="preserve">
<g>
	<g>
		<path d="M256.016,166.366c-49.491,0-89.755,40.202-89.755,89.618c0,49.49,40.264,89.754,89.755,89.754
			c49.419,0,89.625-40.263,89.625-89.756C345.633,206.569,305.426,166.366,256.016,166.366z M256.016,325.34
			c-38.243,0-69.357-31.113-69.357-69.356c0-38.168,31.114-69.22,69.357-69.22c38.165,0,69.22,31.052,69.227,69.22
			C325.243,294.228,294.189,325.34,256.016,325.34z"/>
	</g>
</g>
<g>
	<g>
		<path d="M479.466,131.281c-21.884-39.109-53.719-71.952-92.064-94.979C347.854,12.553,302.422,0,256.016,0
			c-72.669,0-142.15,31.08-190.629,85.269c-2.902,3.245-3.425,7.975-1.301,11.776l71.225,127.455
			c1.814,3.246,5.233,5.224,8.901,5.224c0.33,0,0.663-0.015,0.996-0.049c4.034-0.395,7.453-3.141,8.706-6.996
			c14.314-43.999,55.161-73.794,101.643-74.139c53.237-0.394,213.502-2.064,215.114-2.082c3.599-0.038,6.913-1.97,8.718-5.085
			C481.195,138.259,481.224,134.423,479.466,131.281z M255.405,128.144c-47.903,0.355-90.778,27.031-112.45,68.221L85.5,93.549
			c44.326-46.577,106.059-73.151,170.516-73.151c79.277,0,153.054,40.143,196.512,105.85
			C408.944,126.699,297.954,127.83,255.405,128.144z"/>
	</g>
</g>
<g>
	<g>
		<path d="M497.058,169.936c-1.455-4.049-5.294-6.749-9.597-6.749H339.273c-4.124,0-7.84,2.482-9.42,6.291
			c-1.581,3.809-0.712,8.194,2.2,11.113c20.321,20.364,31.512,47.14,31.512,75.394c0,28.753-14.464,52.825-28.607,72.574
			c-28.112,39.184-92.762,162.956-95.5,168.205c-1.65,3.162-1.528,6.955,0.321,10.004s5.156,4.912,8.721,4.912
			c0.924,0,1.983,0.067,3.104,0.139c1.328,0.085,2.831,0.181,4.411,0.181c68.375,0,132.659-26.629,181.006-74.981
			C485.373,388.665,512,324.372,512,255.985C512,226.468,506.973,197.518,497.058,169.936z M265.327,491.42
			c18.378-34.712,64.535-120.765,86.21-150.978c15.098-21.081,32.426-49.731,32.426-84.458c0-26.13-8.003-51.175-22.867-72.399
			h119.077c7.586,23.32,11.428,47.641,11.428,72.399C491.602,382.788,390.933,486.517,265.327,491.42z"/>
	</g>
</g>
<g>
	<g>
		<path d="M470.183,239.109c-5.632,0-10.199,4.566-10.199,10.199c0,2.129-0.032,4.279-0.095,6.391
			c-0.166,5.63,4.262,10.33,9.893,10.496c0.103,0.003,0.205,0.004,0.308,0.004c5.493,0,10.025-4.369,10.189-9.898
			c0.068-2.312,0.103-4.664,0.103-6.993C480.382,243.675,475.815,239.109,470.183,239.109z"/>
	</g>
</g>
<g>
	<g>
		<path d="M468.233,280.654c-5.535-1.036-10.865,2.606-11.905,8.143c-13.2,70.356-60.587,128.947-126.762,156.733
			c-5.194,2.181-7.637,8.159-5.456,13.353c1.639,3.904,5.424,6.253,9.408,6.253c1.317,0,2.655-0.257,3.944-0.798
			c35.141-14.755,66.49-38.241,90.656-67.917c24.458-30.035,41.145-65.949,48.258-103.862
			C477.416,287.023,473.77,281.693,468.233,280.654z"/>
	</g>
</g>
<g>
	<g>
		<path d="M289.281,364.716c-2.421-3.262-6.547-4.777-10.507-3.854c-7.623,1.779-15.28,2.68-22.758,2.68
			c-42.651,0-80.564-27.275-101.415-72.959c-20.298-44.471-94.33-165.916-97.472-171.063c-1.836-3.009-5.094-4.857-8.619-4.886
			c-3.495-0.035-6.813,1.762-8.701,4.739C13.766,160.459,0,207.699,0,255.985C0,315.618,20.992,373.654,59.109,419.4
			c37.6,45.124,89.916,76.192,147.311,87.48c0.659,0.128,1.318,0.192,1.971,0.192c3.595,0,6.99-1.906,8.833-5.104l72.702-126.078
			C291.956,372.369,291.702,367.98,289.281,364.716z M203.258,485.355C96.865,461.012,20.398,365.694,20.398,255.985
			c0-38.851,9.695-76.976,28.168-111.228c20.715,34.345,71.756,119.852,87.479,154.297c24.261,53.153,69.11,84.887,119.971,84.887
			c1.928,0,3.865-0.05,5.806-0.148L203.258,485.355z"/>
	</g>
</g>
</svg>