<svg role="img" viewBox="0 0 24 24" xmlns="http://www.w3.org/2000/svg" id="Deepl--Streamline-Simple-Icons" height="24" width="24">
  <desc>
    Deepl Streamline Icon: https://streamlinehq.com
  </desc>
  <title>DeepL</title>
  <path d="M20.907 4.93953 12.68543 0.18573a1.3577 1.3577 0 0 0 -1.3709 0L3.09298 4.9565a1.3766 1.3766 0 0 0 -0.68639 1.18233v9.52646a1.3766 1.3766 0 0 0 0.68639 1.19363l8.22157 4.75946 0.06223 0.03583 4.04856 2.3458 -0.01131 -2.06106 0.0075 -1.1446 0.0038 0.01885v-0.38467c0 -0.23006 0.1188 -0.43371 0.29605 -0.56005l0.264 -0.15086 0.12633 -0.06977h-0.0075l4.80283 -2.7795a1.3803 1.3803 0 0 0 0.68639 -1.19551V6.13505a1.3803 1.3803 0 0 0 -0.68642 -1.19552m-9.85269 9.68863a1.4275 1.4275 0 0 1 -0.39976 1.3841 1.4086 1.4086 0 0 1 -1.97054 0 1.4199 1.4199 0 0 1 0 -2.06294 1.4086 1.4086 0 0 1 2.0422 0.07543l3.32822 -1.91585 0.6864 0.38656zm5.77019 -2.41367a1.4086 1.4086 0 0 1 -1.97054 0 1.4256 1.4256 0 0 1 -0.3696 -1.47837l-0.0132 0.0075 -3.7525 -2.1723 -0.05657 0.05656a1.4086 1.4086 0 0 1 -1.97053 0 1.4199 1.4199 0 0 1 0 -2.06293 1.4086 1.4086 0 0 1 1.97242 0c0.3941 0.37713 0.52422 0.91832 0.39033 1.40672l3.7808 2.20059 0.01886 -0.01886a1.4086 1.4086 0 0 1 1.97242 0 1.42746 1.42746 0 0 1 0 2.06105z" fill="#000000" stroke-width="1"></path>
</svg>