<?xml version="1.0" encoding="iso-8859-1"?>
<!-- Generator: Adobe Illustrator 28.7.3, SVG Export Plug-In . SVG Version: 9.03 Build 54978)  -->
<svg version="1.1" id="Layer_1" xmlns="http://www.w3.org/2000/svg" xmlns:xlink="http://www.w3.org/1999/xlink" x="0px" y="0px"
	 viewBox="0 0 48 48" style="enable-background:new 0 0 48 48;" xml:space="preserve">
<path id="mark_00000062882923255644305100000010174725179825093017_" d="M18.542,30.532l15.956-11.776
	c0.783-0.576,1.902-0.354,2.274,0.545c1.962,4.728,1.084,10.411-2.819,14.315c-3.903,3.901-9.333,4.756-14.299,2.808l-5.423,2.511
	c7.778,5.315,17.224,4,23.125-1.903c4.682-4.679,6.131-11.058,4.775-16.812l0.011,0.011c-1.966-8.452,0.482-11.829,5.501-18.735
	C47.759,1.332,47.88,1.166,48,1l-6.602,6.599V7.577l-22.86,22.958"/>
<path id="mark-2_00000004528763731157956800000003152473533971182259_" d="M15.248,33.392c-5.582-5.329-4.619-13.579,0.142-18.339
	c3.521-3.522,9.294-4.958,14.331-2.847l5.412-2.497c-0.974-0.704-2.224-1.46-3.659-1.994c-6.478-2.666-14.238-1.34-19.505,3.922
	C6.904,16.701,5.31,24.488,8.045,31.133c2.044,4.965-1.307,8.48-4.682,12.023C2.164,44.411,0.967,45.67,0,47l15.241-13.608"/>
</svg>