<svg version="1.1" id="Layer_1" xmlns:x="ns_extend;" xmlns:i="ns_ai;" xmlns:graph="ns_graphs;" xmlns="http://www.w3.org/2000/svg" xmlns:xlink="http://www.w3.org/1999/xlink" x="0px" y="0px" viewBox="0 0 79.9 81" style="enable-background:new 0 0 79.9 81;" xml:space="preserve">
 <metadata>
  <sfw xmlns="ns_sfw;">
   <slices>
   </slices>
   <sliceSourceBounds bottomLeftOrigin="true" height="81" width="79.9" x="35.4" y="-240.7">
   </sliceSourceBounds>
  </sfw>
 </metadata>
 <g>
  <path d="M74.6,33.1c1.8-5.5,1.2-11.6-1.7-16.6c-4.4-7.7-13.3-11.6-22-9.8C47.1,2.4,41.5,0,35.7,0C26.8,0,19,5.7,16.2,14.1
		c-5.7,1.2-10.6,4.7-13.5,9.8c-4.4,7.7-3.4,17.3,2.5,23.9C3.4,53.4,4.1,59.4,7,64.4c4.4,7.7,13.3,11.7,22,9.8
		c3.9,4.3,9.4,6.8,15.2,6.8c8.9,0,16.7-5.7,19.5-14.1c5.7-1.2,10.6-4.7,13.5-9.8C81.6,49.4,80.6,39.7,74.6,33.1z M44.2,75.7
		c-3.6,0-7-1.2-9.7-3.5c0.1-0.1,0.4-0.2,0.5-0.3l16.1-9.3c0.8-0.5,1.3-1.3,1.3-2.3V37.6l6.8,3.9c0.1,0,0.1,0.1,0.1,0.2v18.8
		C59.4,68.9,52.6,75.7,44.2,75.7z M11.6,61.8c-1.8-3.1-2.4-6.7-1.8-10.2c0.1,0.1,0.3,0.2,0.5,0.3l16.1,9.3c0.8,0.5,1.8,0.5,2.6,0
		l19.7-11.4v7.9c0,0.1,0,0.2-0.1,0.2l-16.3,9.4C25.1,71.5,15.8,69,11.6,61.8L11.6,61.8z M7.4,26.6c1.8-3.1,4.6-5.4,7.9-6.7v19.2
		c0,0.9,0.5,1.8,1.3,2.3l19.7,11.4l-6.8,3.9c-0.1,0-0.2,0.1-0.2,0l-16.3-9.4C5.6,43.1,3.2,33.8,7.4,26.6L7.4,26.6z M63.4,39.6
		L43.7,28.2l6.8-3.9c0.1,0,0.2-0.1,0.2,0L67,33.7c7.3,4.2,9.7,13.5,5.5,20.7c-1.8,3.1-4.6,5.4-7.9,6.6V41.9
		C64.7,41,64.2,40.1,63.4,39.6L63.4,39.6z M70.1,29.4c-0.1-0.1-0.3-0.2-0.5-0.3l-16.1-9.3c-0.8-0.5-1.8-0.5-2.6,0L31.2,31.2v-7.9
		c0-0.1,0-0.2,0.1-0.2l16.3-9.4c7.3-4.2,16.5-1.7,20.7,5.6C70.1,22.3,70.7,25.9,70.1,29.4L70.1,29.4z M27.5,43.4l-6.8-3.9
		c-0.1,0-0.1-0.1-0.1-0.2V20.5c0-8.4,6.8-15.2,15.2-15.2c3.6,0,7,1.2,9.7,3.5c-0.1,0.1-0.3,0.2-0.5,0.3l-16.1,9.3
		c-0.8,0.5-1.3,1.3-1.3,2.3V43.4z M31.2,35.4l8.8-5.1l8.8,5.1v10.1l-8.8,5.1l-8.8-5.1L31.2,35.4z">
  </path>
 </g>
</svg>