<svg xmlns="http://www.w3.org/2000/svg" viewBox="0 0 24 24" width="48px" height="48px">
  <path
      d="M 14 3 C 12.300781 3 11 4.414063 11 6 L 11 8.03125 C 8.882813 8.175781 6.976563 8.785156 5.4375 9.71875 C 4.878906 9.28125 4.21875 9.03125 3.5625 9.03125 C 2.835938 9.03125 2.128906 9.308594 1.625 9.875 C 0.667969 11.070313 0.753906 13.023438 2.09375 14.03125 C 2.03125 14.347656 2 14.667969 2 15 C 2 17.054688 3.242188 18.84375 5.0625 20.0625 C 6.882813 21.28125 9.320313 22 12 22 C 14.679688 22 17.117188 21.28125 18.9375 20.0625 C 20.757813 18.84375 22 17.054688 22 15 C 22 14.667969 21.9375 14.347656 21.875 14.03125 C 23.238281 12.945313 23.378906 11.003906 22.375 9.875 C 21.871094 9.308594 21.164063 9.03125 20.4375 9.03125 C 19.78125 9.03125 19.121094 9.28125 18.5625 9.71875 C 17.023438 8.785156 15.117188 8.175781 13 8.03125 L 13 6 C 13 5.386719 13.300781 5 14 5 C 14.320313 5 14.773438 5.171875 15.53125 5.4375 C 16.203125 5.671875 17.09375 5.914063 18.25 5.96875 C 18.589844 6.585938 19.25 7 20 7 C 21.101563 7 22 6.101563 22 5 C 22 3.898438 21.101563 3 20 3 C 19.273438 3 18.632813 3.382813 18.28125 3.96875 C 17.394531 3.925781 16.769531 3.765625 16.1875 3.5625 C 15.519531 3.328125 14.878906 3 14 3 Z M 20 4 C 20.601563 4 21 4.398438 21 5 C 21 5.601563 20.601563 6 20 6 C 19.398438 6 19 5.601563 19 5 C 19 4.398438 19.398438 4 20 4 Z M 12 10 C 14.320313 10 16.382813 10.636719 17.8125 11.59375 C 19.242188 12.550781 20 13.753906 20 15 C 20 16.246094 19.242188 17.449219 17.8125 18.40625 C 16.382813 19.363281 14.320313 20 12 20 C 9.679688 20 7.617188 19.363281 6.1875 18.40625 C 4.757813 17.449219 4 16.246094 4 15 C 4 13.753906 4.757813 12.550781 6.1875 11.59375 C 7.617188 10.636719 9.679688 10 12 10 Z M 3.59375 10.03125 C 3.925781 10.03125 4.277344 10.101563 4.59375 10.28125 C 3.628906 11.023438 2.878906 11.9375 2.4375 12.96875 C 1.855469 12.28125 1.867188 11.191406 2.375 10.53125 C 2.671875 10.195313 3.121094 10.03125 3.59375 10.03125 Z M 20.40625 10.03125 C 20.878906 10.03125 21.328125 10.195313 21.625 10.53125 C 22.117188 11.085938 22.15625 12.175781 21.5625 12.9375 C 21.121094 11.914063 20.363281 11.019531 19.40625 10.28125 C 19.722656 10.101563 20.074219 10.03125 20.40625 10.03125 Z M 9 12 C 8.171875 12 7.5 12.671875 7.5 13.5 C 7.5 14.328125 8.171875 15 9 15 C 9.828125 15 10.5 14.328125 10.5 13.5 C 10.5 12.671875 9.828125 12 9 12 Z M 15 12 C 14.171875 12 13.5 12.671875 13.5 13.5 C 13.5 14.328125 14.171875 15 15 15 C 15.828125 15 16.5 14.328125 16.5 13.5 C 16.5 12.671875 15.828125 12 15 12 Z M 16.09375 16.40625 C 15.195313 17.207031 13.699219 17.6875 12 17.6875 C 10.300781 17.6875 8.804688 17.199219 7.90625 16.5 C 8.40625 17.800781 10 19 12 19 C 14 19 15.59375 17.804688 16.09375 16.40625 Z"/>
</svg>