<?xml version="1.0" encoding="iso-8859-1"?>
<!-- Generator: Adobe Illustrator 19.0.0, SVG Export Plug-In . SVG Version: 6.00 Build 0)  -->
<svg version="1.1" id="Capa_1" xmlns="http://www.w3.org/2000/svg" x="0px" y="0px"
     viewBox="0 0 512 512" style="enable-background:new 0 0 512 512;" xml:space="preserve">
<g>
	<g>
		<g>
			<path d="M256,0C114.844,0,0,114.844,0,256s114.844,256,256,256s256-114.844,256-256S397.156,0,256,0z M256,490.667
				C126.604,490.667,21.333,385.396,21.333,256c0-111.539,78.292-204.974,182.758-228.686l147.583,442.751
				C322.415,483.195,290.091,490.667,256,490.667z M310.115,238.677c4.27,10.509,15.54,25.139,28.633,39.982
				c-6.904,7.253-14.135,14.02-21.827,19.706L281.465,192h111.079c-5.059,16.923-19.604,44.941-39.669,70.395
				c-10.962-12.513-19.888-24.102-22.99-31.738c-2.219-5.469-8.49-8.052-13.896-5.875C310.531,227,307.896,233.219,310.115,238.677z
				 M370.926,460.38l-47.048-141.145l2.299-1.204c9.331-6.629,18.22-14.974,26.757-23.892
				c20.487,21.598,41.145,40.685,45.202,44.392c2.042,1.875,4.625,2.802,7.198,2.802c2.885,0,5.76-1.167,7.865-3.458
				c3.979-4.354,3.688-11.094-0.656-15.073c-9.986-9.145-28.384-26.732-45.41-44.732c24.28-29.934,42.332-64.243,47.283-86.07
				h22.919c5.896,0,10.667-4.771,10.667-10.667c0-5.896-4.771-10.667-10.667-10.667h-74.667V160c0-5.896-4.771-10.667-10.667-10.667
				c-5.896,0-10.667,4.771-10.667,10.667v10.667h-66.979l-49.03-147.091c10.066-1.323,20.255-2.242,30.676-2.242
				c129.396,0,234.667,105.271,234.667,234.667C490.667,343.638,442.294,420.087,370.926,460.38z"/>
      <path d="M85.333,256c0,47.052,38.281,85.333,85.333,85.333C217.719,341.333,256,303.052,256,256
				c0-5.896-4.771-10.667-10.667-10.667h-74.667c-5.896,0-10.667,4.771-10.667,10.667s4.771,10.667,10.667,10.667h63.115
				C228.688,296.896,202.323,320,170.667,320c-35.292,0-64-28.708-64-64s28.708-64,64-64c15.24,0,30.01,5.458,41.583,15.354
				c4.49,3.833,11.229,3.323,15.042-1.167c3.833-4.479,3.302-11.208-1.167-15.042c-15.438-13.208-35.135-20.479-55.458-20.479
				C123.615,170.667,85.333,208.948,85.333,256z"/>
		</g>
	</g>
</g>
</svg>
