<svg xmlns="http://www.w3.org/2000/svg" fill="none" viewBox="0 0 24 24" id="Text-To-Speech--Streamline-Outlined-Material" height="24" width="24">
  <path fill="#000000" d="M3.5 22c-0.4125 0 -0.765585 -0.1469 -1.05925 -0.44075C2.146915 21.2656 2 20.9125 2 20.5V3.5c0 -0.4125 0.146915 -0.765665 0.44075 -1.0595C2.734415 2.146835 3.0875 2 3.5 2h8.65l-1.5 1.5H3.5v17h12v-2.75h1.5V20.5c0 0.4125 -0.14685 0.7656 -0.4405 1.05925C16.26565 21.8531 15.9125 22 15.5 22H3.5Zm2.5 -4.25v-1.5h7v1.5H6Zm0 -3v-1.5h5v1.5H6Zm9.5 0.25 -4 -4h-3.5V6h3.5l4 -4v13Zm1.5 -2.3V4.05c0.93335 0.35 1.66665 0.96665 2.2 1.85 0.53335 0.88335 0.8 1.75 0.8 2.6 0 0.85 -0.29165 1.69165 -0.875 2.525 -0.58335 0.83335 -1.29165 1.39165 -2.125 1.675Zm0 3.55v-1.55c1.16665 -0.41665 2.20835 -1.16665 3.125 -2.25C21.04165 11.36665 21.5 10.05 21.5 8.5c0 -1.55 -0.45835 -2.86665 -1.375 -3.95 -0.91665 -1.083335 -1.95835 -1.833335 -3.125 -2.25V0.75c1.7 0.45 3.125 1.3875 4.275 2.8125C22.425 4.9875 23 6.63335 23 8.5s-0.575 3.5125 -1.725 4.9375C20.125 14.8625 18.7 15.8 17 16.25Z" stroke-width="0.5"></path>
</svg>