<?xml version="1.0"?><svg xmlns="http://www.w3.org/2000/svg"  viewBox="0 0 24 24" width="48px" height="48px">    <path d="M19,3H5C3.895,3,3,3.895,3,5v14c0,1.105,0.895,2,2,2h14c1.105,0,2-0.895,2-2V5C21,3.895,20.105,3,19,3z M17.907,15.684 l-1.735,0.024c0,0-0.374,0.073-0.864-0.265c-0.649-0.446-1.261-1.606-1.738-1.455c-0.484,0.154-0.469,1.198-0.469,1.198 s0.004,0.184-0.107,0.304c-0.12,0.129-0.355,0.116-0.355,0.116h-0.777c0,0-1.714,0.142-3.225-1.433 c-1.646-1.717-3.1-5.106-3.1-5.106S5.452,8.853,5.543,8.744C5.646,8.623,5.924,8.62,5.924,8.62l1.857-0.009 c0,0,0.175,0.031,0.301,0.123c0.103,0.076,0.162,0.219,0.162,0.219s0.3,0.761,0.698,1.45c0.776,1.343,1.137,1.637,1.4,1.493 c0.384-0.21,0.269-1.898,0.269-1.898s0.007-0.613-0.193-0.886C10.262,8.899,9.969,8.836,9.84,8.82 c-0.105-0.014,0.066-0.257,0.289-0.367c0.334-0.163,0.925-0.173,1.622-0.166c0.543,0.006,0.7,0.039,0.912,0.091 c0.641,0.155,0.423,0.753,0.423,2.188c0,0.46-0.083,1.106,0.248,1.319c0.143,0.092,0.491,0.014,1.36-1.466 c0.413-0.702,0.722-1.527,0.722-1.527s0.068-0.147,0.173-0.21c0.108-0.065,0.253-0.045,0.253-0.045l1.955-0.012 c0,0,0.587-0.071,0.683,0.196c0.1,0.279-0.219,0.93-1.018,1.995c-1.311,1.75-1.457,1.587-0.368,2.599 c1.04,0.967,1.255,1.437,1.291,1.496C18.815,15.627,17.907,15.684,17.907,15.684z"/></svg>