<?xml version='1.0' encoding='iso-8859-1'?>
<svg version="1.1" xmlns="http://www.w3.org/2000/svg" viewBox="0 0 44 44" xmlns:xlink="http://www.w3.org/1999/xlink" enable-background="new 0 0 44 44">
    <g>
        <path d="M28,27.5L28,27.5c-3.1,0-6-1.2-8.1-3.4c-2.2-2.2-3.4-5.2-3.4-8.2c0-0.3-0.2-0.5-0.5-0.5c-0.1,0-0.3,0.1-0.4,0.1   c-1.6,1.6-2.7,3.9-2.7,6.4c0,5,4,9,9,9c2.5,0,4.8-1,6.4-2.7c0.2-0.2,0.2-0.5,0-0.7C28.3,27.5,28.2,27.5,28,27.5z"/>
        <path d="m22,0c-12.2,0-22,9.8-22,22s9.8,22 22,22 22-9.8 22-22-9.8-22-22-22zm0,35c-7.2,0-13-5.8-13-13s5.8-13 13-13c0.6,0 1,0.4 1,1 0,0.3-0.1,0.5-0.3,0.7-2.9,2.9-2.9,7.7 0,10.6 1.5,1.5 3.4,2.2 5.3,2.2s3.8-0.7 5.3-2.2c0.2-0.2 0.4-0.3 0.7-0.3 0.6,0 1,0.4 1,1 0,7.2-5.8,13-13,13z"/>
    </g>
</svg>
